# Summit Valley stylized asset
mtllib asset.mtl
v -0.325 0.600 -0.250
v 0.325 0.600 -0.250
v 0.325 1.800 -0.250
v -0.325 1.800 -0.250
v -0.325 0.600 0.250
v 0.325 0.600 0.250
v 0.325 1.800 0.250
v -0.325 1.800 0.250
v 0.400 1.775 0.000
v 0.380 2.525 0.000
v 0.283 1.775 0.283
v 0.269 2.525 0.269
v 0.000 1.775 0.400
v 0.000 2.525 0.380
v -0.283 1.775 0.283
v -0.269 2.525 0.269
v -0.400 1.775 0.000
v -0.380 2.525 0.000
v -0.283 1.775 -0.283
v -0.269 2.525 -0.269
v -0.000 1.775 -0.400
v -0.000 2.525 -0.380
v 0.283 1.775 -0.283
v 0.269 2.525 -0.269
v 0.440 2.230 0.000
v 0.400 2.730 0.000
v 0.311 2.230 0.311
v 0.283 2.730 0.283
v 0.000 2.230 0.440
v 0.000 2.730 0.400
v -0.311 2.230 0.311
v -0.283 2.730 0.283
v -0.440 2.230 0.000
v -0.400 2.730 0.000
v -0.311 2.230 -0.311
v -0.283 2.730 -0.283
v -0.000 2.230 -0.440
v -0.000 2.730 -0.400
v 0.311 2.230 -0.311
v 0.283 2.730 -0.283
v -0.360 0.130 -0.190
v -0.080 0.130 -0.190
v -0.080 0.830 -0.190
v -0.360 0.830 -0.190
v -0.360 0.130 0.190
v -0.080 0.130 0.190
v -0.080 0.830 0.190
v -0.360 0.830 0.190
v -0.270 0.040 -1.575
v -0.170 0.040 -1.575
v -0.170 0.120 -1.575
v -0.270 0.120 -1.575
v -0.270 0.040 0.675
v -0.170 0.040 0.675
v -0.170 0.120 0.675
v -0.270 0.120 0.675
v -0.330 0.120 -0.405
v -0.110 0.120 -0.405
v -0.110 0.360 -0.405
v -0.330 0.360 -0.405
v -0.330 0.120 0.045
v -0.110 0.120 0.045
v -0.110 0.360 0.045
v -0.330 0.360 0.045
v -0.377 1.540 -0.050
v -0.627 0.940 -0.750
v -0.407 1.533 -0.033
v -0.657 0.933 -0.733
v -0.423 1.560 -0.050
v -0.673 0.960 -0.750
v -0.393 1.567 -0.067
v -0.643 0.967 -0.767
v 0.080 0.130 -0.190
v 0.360 0.130 -0.190
v 0.360 0.830 -0.190
v 0.080 0.830 -0.190
v 0.080 0.130 0.190
v 0.360 0.130 0.190
v 0.360 0.830 0.190
v 0.080 0.830 0.190
v 0.170 0.040 -1.575
v 0.270 0.040 -1.575
v 0.270 0.120 -1.575
v 0.170 0.120 -1.575
v 0.170 0.040 0.675
v 0.270 0.040 0.675
v 0.270 0.120 0.675
v 0.170 0.120 0.675
v 0.110 0.120 -0.405
v 0.330 0.120 -0.405
v 0.330 0.360 -0.405
v 0.110 0.360 -0.405
v 0.110 0.120 0.045
v 0.330 0.120 0.045
v 0.330 0.360 0.045
v 0.110 0.360 0.045
v 0.423 1.560 -0.050
v 0.673 0.960 -0.750
v 0.407 1.533 -0.033
v 0.657 0.933 -0.733
v 0.377 1.540 -0.050
v 0.627 0.940 -0.750
v 0.393 1.567 -0.067
v 0.643 0.967 -0.767
usemtl jacket
f 1 2 3 jacket
f 1 3 4 jacket
f 6 5 8 jacket
f 6 8 7 jacket
f 5 6 2 jacket
f 5 2 1 jacket
f 4 3 7 jacket
f 4 7 8 jacket
f 5 1 4 jacket
f 5 4 8 jacket
f 2 6 7 jacket
f 2 7 3 jacket
usemtl skin
f 9 11 12 skin
f 9 12 10 skin
f 11 13 14 skin
f 11 14 12 skin
f 13 15 16 skin
f 13 16 14 skin
f 15 17 18 skin
f 15 18 16 skin
f 17 19 20 skin
f 17 20 18 skin
f 19 21 22 skin
f 19 22 20 skin
f 21 23 24 skin
f 21 24 22 skin
f 23 9 10 skin
f 23 10 24 skin
usemtl default
f 9 11 13 default
f 9 13 skin default
usemtl dark
f 25 27 28 dark
f 25 28 26 dark
f 27 29 30 dark
f 27 30 28 dark
f 29 31 32 dark
f 29 32 30 dark
f 31 33 34 dark
f 31 34 32 dark
f 33 35 36 dark
f 33 36 34 dark
f 35 37 38 dark
f 35 38 36 dark
f 37 39 40 dark
f 37 40 38 dark
f 39 25 26 dark
f 39 26 40 dark
usemtl default
f 25 27 29 default
f 25 29 dark default
usemtl pants
f 41 42 43 pants
f 41 43 44 pants
f 46 45 48 pants
f 46 48 47 pants
f 45 46 42 pants
f 45 42 41 pants
f 44 43 47 pants
f 44 47 48 pants
f 45 41 44 pants
f 45 44 48 pants
f 42 46 47 pants
f 42 47 43 pants
usemtl snow
f 49 50 51 snow
f 49 51 52 snow
f 54 53 56 snow
f 54 56 55 snow
f 53 54 50 snow
f 53 50 49 snow
f 52 51 55 snow
f 52 55 56 snow
f 53 49 52 snow
f 53 52 56 snow
f 50 54 55 snow
f 50 55 51 snow
usemtl dark
f 57 58 59 dark
f 57 59 60 dark
f 62 61 64 dark
f 62 64 63 dark
f 61 62 58 dark
f 61 58 57 dark
f 60 59 63 dark
f 60 63 64 dark
f 61 57 60 dark
f 61 60 64 dark
f 58 62 63 dark
f 58 63 59 dark
f 65 67 68 dark
f 65 68 66 dark
f 67 69 70 dark
f 67 70 68 dark
f 69 71 72 dark
f 69 72 70 dark
f 71 65 66 dark
f 71 66 72 dark
usemtl pants
f 73 74 75 pants
f 73 75 76 pants
f 78 77 80 pants
f 78 80 79 pants
f 77 78 74 pants
f 77 74 73 pants
f 76 75 79 pants
f 76 79 80 pants
f 77 73 76 pants
f 77 76 80 pants
f 74 78 79 pants
f 74 79 75 pants
usemtl snow
f 81 82 83 snow
f 81 83 84 snow
f 86 85 88 snow
f 86 88 87 snow
f 85 86 82 snow
f 85 82 81 snow
f 84 83 87 snow
f 84 87 88 snow
f 85 81 84 snow
f 85 84 88 snow
f 82 86 87 snow
f 82 87 83 snow
usemtl dark
f 89 90 91 dark
f 89 91 92 dark
f 94 93 96 dark
f 94 96 95 dark
f 93 94 90 dark
f 93 90 89 dark
f 92 91 95 dark
f 92 95 96 dark
f 93 89 92 dark
f 93 92 96 dark
f 90 94 95 dark
f 90 95 91 dark
f 97 99 100 dark
f 97 100 98 dark
f 99 101 102 dark
f 99 102 100 dark
f 101 103 104 dark
f 101 104 102 dark
f 103 97 98 dark
f 103 98 104 dark
