# Summit Valley stylized asset
mtllib asset.mtl
v 0.550 0.005 0.000
v 0.550 0.355 0.000
v 0.445 0.005 0.323
v 0.445 0.355 0.323
v 0.170 0.005 0.523
v 0.170 0.355 0.523
v -0.170 0.005 0.523
v -0.170 0.355 0.523
v -0.445 0.005 0.323
v -0.445 0.355 0.323
v -0.550 0.005 0.000
v -0.550 0.355 0.000
v -0.445 0.005 -0.323
v -0.445 0.355 -0.323
v -0.170 0.005 -0.523
v -0.170 0.355 -0.523
v 0.170 0.005 -0.523
v 0.170 0.355 -0.523
v 0.445 0.005 -0.323
v 0.445 0.355 -0.323
v 0.160 0.320 0.000
v 0.160 1.320 0.000
v 0.129 0.320 0.094
v 0.129 1.320 0.094
v 0.049 0.320 0.152
v 0.049 1.320 0.152
v -0.049 0.320 0.152
v -0.049 1.320 0.152
v -0.129 0.320 0.094
v -0.129 1.320 0.094
v -0.160 0.320 0.000
v -0.160 1.320 0.000
v -0.129 0.320 -0.094
v -0.129 1.320 -0.094
v -0.049 0.320 -0.152
v -0.049 1.320 -0.152
v 0.049 0.320 -0.152
v 0.049 1.320 -0.152
v 0.129 0.320 -0.094
v 0.129 1.320 -0.094
v -0.040 1.747 0.000
v 1.460 1.947 0.000
v -0.000 1.450 0.300
v 1.500 1.650 0.300
v 0.040 1.153 0.000
v 1.540 1.353 0.000
v 0.000 1.450 -0.300
v 1.500 1.650 -0.300
v 1.970 1.375 0.000
v 1.970 1.925 0.000
v 1.914 1.375 0.210
v 1.914 1.925 0.210
v 1.760 1.375 0.364
v 1.760 1.925 0.364
v 1.550 1.375 0.420
v 1.550 1.925 0.420
v 1.340 1.375 0.364
v 1.340 1.925 0.364
v 1.186 1.375 0.210
v 1.186 1.925 0.210
v 1.130 1.375 0.000
v 1.130 1.925 0.000
v 1.186 1.375 -0.210
v 1.186 1.925 -0.210
v 1.340 1.375 -0.364
v 1.340 1.925 -0.364
v 1.550 1.375 -0.420
v 1.550 1.925 -0.420
v 1.760 1.375 -0.364
v 1.760 1.925 -0.364
v 1.914 1.375 -0.210
v 1.914 1.925 -0.210
v 2.030 1.500 0.000
v 2.030 1.800 0.000
v 1.996 1.500 0.106
v 1.996 1.800 0.106
v 1.906 1.500 0.171
v 1.906 1.800 0.171
v 1.794 1.500 0.171
v 1.794 1.800 0.171
v 1.704 1.500 0.106
v 1.704 1.800 0.106
v 1.670 1.500 0.000
v 1.670 1.800 0.000
v 1.704 1.500 -0.106
v 1.704 1.800 -0.106
v 1.794 1.500 -0.171
v 1.794 1.800 -0.171
v 1.906 1.500 -0.171
v 1.906 1.800 -0.171
v 1.996 1.500 -0.106
v 1.996 1.800 -0.106
usemtl steel
f 1 3 4 steel
f 1 4 2 steel
f 3 5 6 steel
f 3 6 4 steel
f 5 7 8 steel
f 5 8 6 steel
f 7 9 10 steel
f 7 10 8 steel
f 9 11 12 steel
f 9 12 10 steel
f 11 13 14 steel
f 11 14 12 steel
f 13 15 16 steel
f 13 16 14 steel
f 15 17 18 steel
f 15 18 16 steel
f 17 19 20 steel
f 17 20 18 steel
f 19 1 2 steel
f 19 2 20 steel
usemtl default
f 1 3 5 default
f 1 5 steel default
usemtl steel
f 21 23 24 steel
f 21 24 22 steel
f 23 25 26 steel
f 23 26 24 steel
f 25 27 28 steel
f 25 28 26 steel
f 27 29 30 steel
f 27 30 28 steel
f 29 31 32 steel
f 29 32 30 steel
f 31 33 34 steel
f 31 34 32 steel
f 33 35 36 steel
f 33 36 34 steel
f 35 37 38 steel
f 35 38 36 steel
f 37 39 40 steel
f 37 40 38 steel
f 39 21 22 steel
f 39 22 40 steel
usemtl default
f 21 23 25 default
f 21 25 steel default
usemtl steel
f 41 43 44 steel
f 41 44 42 steel
f 43 45 46 steel
f 43 46 44 steel
f 45 47 48 steel
f 45 48 46 steel
f 47 41 42 steel
f 47 42 48 steel
usemtl blue
f 49 51 52 blue
f 49 52 50 blue
f 51 53 54 blue
f 51 54 52 blue
f 53 55 56 blue
f 53 56 54 blue
f 55 57 58 blue
f 55 58 56 blue
f 57 59 60 blue
f 57 60 58 blue
f 59 61 62 blue
f 59 62 60 blue
f 61 63 64 blue
f 61 64 62 blue
f 63 65 66 blue
f 63 66 64 blue
f 65 67 68 blue
f 65 68 66 blue
f 67 69 70 blue
f 67 70 68 blue
f 69 71 72 blue
f 69 72 70 blue
f 71 49 50 blue
f 71 50 72 blue
usemtl default
f 49 51 53 default
f 49 53 blue default
usemtl dark
f 73 75 76 dark
f 73 76 74 dark
f 75 77 78 dark
f 75 78 76 dark
f 77 79 80 dark
f 77 80 78 dark
f 79 81 82 dark
f 79 82 80 dark
f 81 83 84 dark
f 81 84 82 dark
f 83 85 86 dark
f 83 86 84 dark
f 85 87 88 dark
f 85 88 86 dark
f 87 89 90 dark
f 87 90 88 dark
f 89 91 92 dark
f 89 92 90 dark
f 91 73 74 dark
f 91 74 92 dark
usemtl default
f 73 75 77 default
f 73 77 dark default
