# Summit Valley stylized asset
mtllib asset.mtl
v 0.220 0.000 0.000
v 0.220 3.000 0.000
v 0.156 0.000 0.156
v 0.156 3.000 0.156
v 0.000 0.000 0.220
v 0.000 3.000 0.220
v -0.156 0.000 0.156
v -0.156 3.000 0.156
v -0.220 0.000 0.000
v -0.220 3.000 0.000
v -0.156 0.000 -0.156
v -0.156 3.000 -0.156
v -0.000 0.000 -0.220
v -0.000 3.000 -0.220
v 0.156 0.000 -0.156
v 0.156 3.000 -0.156
v 2.700 0.750 0.000
v 0.000 4.450 0.000
v 1.909 0.750 1.909
v 0.000 4.450 0.000
v 0.000 0.750 2.700
v 0.000 4.450 0.000
v -1.909 0.750 1.909
v 0.000 4.450 0.000
v -2.700 0.750 0.000
v 0.000 4.450 0.000
v -1.909 0.750 -1.909
v 0.000 4.450 0.000
v -0.000 0.750 -2.700
v 0.000 4.450 0.000
v 1.909 0.750 -1.909
v 0.000 4.450 0.000
v 1.296 3.266 0.000
v 0.000 4.524 0.000
v 0.916 3.266 0.916
v 0.000 4.524 0.000
v 0.000 3.266 1.296
v 0.000 4.524 0.000
v -0.916 3.266 0.916
v 0.000 4.524 0.000
v -1.296 3.266 0.000
v 0.000 4.524 0.000
v -0.916 3.266 -0.916
v 0.000 4.524 0.000
v -0.000 3.266 -1.296
v 0.000 4.524 0.000
v 0.916 3.266 -0.916
v 0.000 4.524 0.000
v 2.250 2.450 0.000
v 0.000 5.950 0.000
v 1.591 2.450 1.591
v 0.000 5.950 0.000
v 0.000 2.450 2.250
v 0.000 5.950 0.000
v -1.591 2.450 1.591
v 0.000 5.950 0.000
v -2.250 2.450 0.000
v 0.000 5.950 0.000
v -1.591 2.450 -1.591
v 0.000 5.950 0.000
v -0.000 2.450 -2.250
v 0.000 5.950 0.000
v 1.591 2.450 -1.591
v 0.000 5.950 0.000
v 1.080 4.830 0.000
v 0.000 6.020 0.000
v 0.764 4.830 0.764
v 0.000 6.020 0.000
v 0.000 4.830 1.080
v 0.000 6.020 0.000
v -0.764 4.830 0.764
v 0.000 6.020 0.000
v -1.080 4.830 0.000
v 0.000 6.020 0.000
v -0.764 4.830 -0.764
v 0.000 6.020 0.000
v -0.000 4.830 -1.080
v 0.000 6.020 0.000
v 0.764 4.830 -0.764
v 0.000 6.020 0.000
v 1.800 4.050 0.000
v 0.000 7.450 0.000
v 1.273 4.050 1.273
v 0.000 7.450 0.000
v 0.000 4.050 1.800
v 0.000 7.450 0.000
v -1.273 4.050 1.273
v 0.000 7.450 0.000
v -1.800 4.050 0.000
v 0.000 7.450 0.000
v -1.273 4.050 -1.273
v 0.000 7.450 0.000
v -0.000 4.050 -1.800
v 0.000 7.450 0.000
v 1.273 4.050 -1.273
v 0.000 7.450 0.000
v 0.864 6.362 0.000
v 0.000 7.518 0.000
v 0.611 6.362 0.611
v 0.000 7.518 0.000
v 0.000 6.362 0.864
v 0.000 7.518 0.000
v -0.611 6.362 0.611
v 0.000 7.518 0.000
v -0.864 6.362 0.000
v 0.000 7.518 0.000
v -0.611 6.362 -0.611
v 0.000 7.518 0.000
v -0.000 6.362 -0.864
v 0.000 7.518 0.000
v 0.611 6.362 -0.611
v 0.000 7.518 0.000
v 1.350 5.700 0.000
v 0.000 8.700 0.000
v 0.955 5.700 0.955
v 0.000 8.700 0.000
v 0.000 5.700 1.350
v 0.000 8.700 0.000
v -0.955 5.700 0.955
v 0.000 8.700 0.000
v -1.350 5.700 0.000
v 0.000 8.700 0.000
v -0.955 5.700 -0.955
v 0.000 8.700 0.000
v -0.000 5.700 -1.350
v 0.000 8.700 0.000
v 0.955 5.700 -0.955
v 0.000 8.700 0.000
v 0.648 7.740 0.000
v 0.000 8.760 0.000
v 0.458 7.740 0.458
v 0.000 8.760 0.000
v 0.000 7.740 0.648
v 0.000 8.760 0.000
v -0.458 7.740 0.458
v 0.000 8.760 0.000
v -0.648 7.740 0.000
v 0.000 8.760 0.000
v -0.458 7.740 -0.458
v 0.000 8.760 0.000
v -0.000 7.740 -0.648
v 0.000 8.760 0.000
v 0.458 7.740 -0.458
v 0.000 8.760 0.000
usemtl wood
f 1 3 4 wood
f 1 4 2 wood
f 3 5 6 wood
f 3 6 4 wood
f 5 7 8 wood
f 5 8 6 wood
f 7 9 10 wood
f 7 10 8 wood
f 9 11 12 wood
f 9 12 10 wood
f 11 13 14 wood
f 11 14 12 wood
f 13 15 16 wood
f 13 16 14 wood
f 15 1 2 wood
f 15 2 16 wood
usemtl default
f 1 3 5 default
f 1 5 wood default
usemtl green
f 17 19 20 green
f 17 20 18 green
f 19 21 22 green
f 19 22 20 green
f 21 23 24 green
f 21 24 22 green
f 23 25 26 green
f 23 26 24 green
f 25 27 28 green
f 25 28 26 green
f 27 29 30 green
f 27 30 28 green
f 29 31 32 green
f 29 32 30 green
f 31 17 18 green
f 31 18 32 green
usemtl default
f 17 19 21 default
f 17 21 green default
usemtl snow
f 33 35 36 snow
f 33 36 34 snow
f 35 37 38 snow
f 35 38 36 snow
f 37 39 40 snow
f 37 40 38 snow
f 39 41 42 snow
f 39 42 40 snow
f 41 43 44 snow
f 41 44 42 snow
f 43 45 46 snow
f 43 46 44 snow
f 45 47 48 snow
f 45 48 46 snow
f 47 33 34 snow
f 47 34 48 snow
usemtl default
f 33 35 37 default
f 33 37 snow default
usemtl green2
f 49 51 52 green2
f 49 52 50 green2
f 51 53 54 green2
f 51 54 52 green2
f 53 55 56 green2
f 53 56 54 green2
f 55 57 58 green2
f 55 58 56 green2
f 57 59 60 green2
f 57 60 58 green2
f 59 61 62 green2
f 59 62 60 green2
f 61 63 64 green2
f 61 64 62 green2
f 63 49 50 green2
f 63 50 64 green2
usemtl default
f 49 51 53 default
f 49 53 green2 default
usemtl snow
f 65 67 68 snow
f 65 68 66 snow
f 67 69 70 snow
f 67 70 68 snow
f 69 71 72 snow
f 69 72 70 snow
f 71 73 74 snow
f 71 74 72 snow
f 73 75 76 snow
f 73 76 74 snow
f 75 77 78 snow
f 75 78 76 snow
f 77 79 80 snow
f 77 80 78 snow
f 79 65 66 snow
f 79 66 80 snow
usemtl default
f 65 67 69 default
f 65 69 snow default
usemtl green
f 81 83 84 green
f 81 84 82 green
f 83 85 86 green
f 83 86 84 green
f 85 87 88 green
f 85 88 86 green
f 87 89 90 green
f 87 90 88 green
f 89 91 92 green
f 89 92 90 green
f 91 93 94 green
f 91 94 92 green
f 93 95 96 green
f 93 96 94 green
f 95 81 82 green
f 95 82 96 green
usemtl default
f 81 83 85 default
f 81 85 green default
usemtl snow
f 97 99 100 snow
f 97 100 98 snow
f 99 101 102 snow
f 99 102 100 snow
f 101 103 104 snow
f 101 104 102 snow
f 103 105 106 snow
f 103 106 104 snow
f 105 107 108 snow
f 105 108 106 snow
f 107 109 110 snow
f 107 110 108 snow
f 109 111 112 snow
f 109 112 110 snow
f 111 97 98 snow
f 111 98 112 snow
usemtl default
f 97 99 101 default
f 97 101 snow default
usemtl green2
f 113 115 116 green2
f 113 116 114 green2
f 115 117 118 green2
f 115 118 116 green2
f 117 119 120 green2
f 117 120 118 green2
f 119 121 122 green2
f 119 122 120 green2
f 121 123 124 green2
f 121 124 122 green2
f 123 125 126 green2
f 123 126 124 green2
f 125 127 128 green2
f 125 128 126 green2
f 127 113 114 green2
f 127 114 128 green2
usemtl default
f 113 115 117 default
f 113 117 green2 default
usemtl snow
f 129 131 132 snow
f 129 132 130 snow
f 131 133 134 snow
f 131 134 132 snow
f 133 135 136 snow
f 133 136 134 snow
f 135 137 138 snow
f 135 138 136 snow
f 137 139 140 snow
f 137 140 138 snow
f 139 141 142 snow
f 139 142 140 snow
f 141 143 144 snow
f 141 144 142 snow
f 143 129 130 snow
f 143 130 144 snow
usemtl default
f 129 131 133 default
f 129 133 snow default
