# Summit Valley stylized asset
mtllib asset.mtl
v -1.600 -3.000 -1.125
v 1.600 -3.000 -1.125
v 1.600 -0.800 -1.125
v -1.600 -0.800 -1.125
v -1.600 -3.000 1.125
v 1.600 -3.000 1.125
v 1.600 -0.800 1.125
v -1.600 -0.800 1.125
v -1.625 -2.675 -1.150
v 1.625 -2.675 -1.150
v 1.625 -2.225 -1.150
v -1.625 -2.225 -1.150
v -1.625 -2.675 1.150
v 1.625 -2.675 1.150
v 1.625 -2.225 1.150
v -1.625 -2.225 1.150
v -1.700 -0.890 -1.200
v 1.700 -0.890 -1.200
v 1.700 -0.670 -1.200
v -1.700 -0.670 -1.200
v -1.700 -0.890 1.200
v 1.700 -0.890 1.200
v 1.700 -0.670 1.200
v -1.700 -0.670 1.200
v -1.310 -2.410 -1.200
v -0.790 -2.410 -1.200
v -0.790 -1.230 -1.200
v -1.310 -1.230 -1.200
v -1.310 -2.410 -1.080
v -0.790 -2.410 -1.080
v -0.790 -1.230 -1.080
v -1.310 -1.230 -1.080
v -1.310 -2.410 1.080
v -0.790 -2.410 1.080
v -0.790 -1.230 1.080
v -1.310 -1.230 1.080
v -1.310 -2.410 1.200
v -0.790 -2.410 1.200
v -0.790 -1.230 1.200
v -1.310 -1.230 1.200
v -0.610 -2.410 -1.200
v -0.090 -2.410 -1.200
v -0.090 -1.230 -1.200
v -0.610 -1.230 -1.200
v -0.610 -2.410 -1.080
v -0.090 -2.410 -1.080
v -0.090 -1.230 -1.080
v -0.610 -1.230 -1.080
v -0.610 -2.410 1.080
v -0.090 -2.410 1.080
v -0.090 -1.230 1.080
v -0.610 -1.230 1.080
v -0.610 -2.410 1.200
v -0.090 -2.410 1.200
v -0.090 -1.230 1.200
v -0.610 -1.230 1.200
v 0.090 -2.410 -1.200
v 0.610 -2.410 -1.200
v 0.610 -1.230 -1.200
v 0.090 -1.230 -1.200
v 0.090 -2.410 -1.080
v 0.610 -2.410 -1.080
v 0.610 -1.230 -1.080
v 0.090 -1.230 -1.080
v 0.090 -2.410 1.080
v 0.610 -2.410 1.080
v 0.610 -1.230 1.080
v 0.090 -1.230 1.080
v 0.090 -2.410 1.200
v 0.610 -2.410 1.200
v 0.610 -1.230 1.200
v 0.090 -1.230 1.200
v 0.790 -2.410 -1.200
v 1.310 -2.410 -1.200
v 1.310 -1.230 -1.200
v 0.790 -1.230 -1.200
v 0.790 -2.410 -1.080
v 1.310 -2.410 -1.080
v 1.310 -1.230 -1.080
v 0.790 -1.230 -1.080
v 0.790 -2.410 1.080
v 1.310 -2.410 1.080
v 1.310 -1.230 1.080
v 0.790 -1.230 1.080
v 0.790 -2.410 1.200
v 1.310 -2.410 1.200
v 1.310 -1.230 1.200
v 0.790 -1.230 1.200
v -0.425 -2.570 -1.220
v 0.425 -2.570 -1.220
v 0.425 -1.070 -1.220
v -0.425 -1.070 -1.220
v -0.425 -2.570 -1.120
v 0.425 -2.570 -1.120
v 0.425 -1.070 -1.120
v -0.425 -1.070 -1.120
v 0.100 -1.000 0.000
v 0.100 0.900 0.000
v 0.081 -1.000 0.059
v 0.081 0.900 0.059
v 0.031 -1.000 0.095
v 0.031 0.900 0.095
v -0.031 -1.000 0.095
v -0.031 0.900 0.095
v -0.081 -1.000 0.059
v -0.081 0.900 0.059
v -0.100 -1.000 0.000
v -0.100 0.900 0.000
v -0.081 -1.000 -0.059
v -0.081 0.900 -0.059
v -0.031 -1.000 -0.095
v -0.031 0.900 -0.095
v 0.031 -1.000 -0.095
v 0.031 0.900 -0.095
v 0.081 -1.000 -0.059
v 0.081 0.900 -0.059
v -0.850 0.820 -0.060
v 0.850 0.820 -0.060
v 0.850 0.940 -0.060
v -0.850 0.940 -0.060
v -0.850 0.820 0.060
v 0.850 0.820 0.060
v 0.850 0.940 0.060
v -0.850 0.940 0.060
usemtl orange
f 1 2 3 orange
f 1 3 4 orange
f 6 5 8 orange
f 6 8 7 orange
f 5 6 2 orange
f 5 2 1 orange
f 4 3 7 orange
f 4 7 8 orange
f 5 1 4 orange
f 5 4 8 orange
f 2 6 7 orange
f 2 7 3 orange
usemtl blue
f 9 10 11 blue
f 9 11 12 blue
f 14 13 16 blue
f 14 16 15 blue
f 13 14 10 blue
f 13 10 9 blue
f 12 11 15 blue
f 12 15 16 blue
f 13 9 12 blue
f 13 12 16 blue
f 10 14 15 blue
f 10 15 11 blue
usemtl dark
f 17 18 19 dark
f 17 19 20 dark
f 22 21 24 dark
f 22 24 23 dark
f 21 22 18 dark
f 21 18 17 dark
f 20 19 23 dark
f 20 23 24 dark
f 21 17 20 dark
f 21 20 24 dark
f 18 22 23 dark
f 18 23 19 dark
usemtl glass
f 25 26 27 glass
f 25 27 28 glass
f 30 29 32 glass
f 30 32 31 glass
f 29 30 26 glass
f 29 26 25 glass
f 28 27 31 glass
f 28 31 32 glass
f 29 25 28 glass
f 29 28 32 glass
f 26 30 31 glass
f 26 31 27 glass
f 33 34 35 glass
f 33 35 36 glass
f 38 37 40 glass
f 38 40 39 glass
f 37 38 34 glass
f 37 34 33 glass
f 36 35 39 glass
f 36 39 40 glass
f 37 33 36 glass
f 37 36 40 glass
f 34 38 39 glass
f 34 39 35 glass
f 41 42 43 glass
f 41 43 44 glass
f 46 45 48 glass
f 46 48 47 glass
f 45 46 42 glass
f 45 42 41 glass
f 44 43 47 glass
f 44 47 48 glass
f 45 41 44 glass
f 45 44 48 glass
f 42 46 47 glass
f 42 47 43 glass
f 49 50 51 glass
f 49 51 52 glass
f 54 53 56 glass
f 54 56 55 glass
f 53 54 50 glass
f 53 50 49 glass
f 52 51 55 glass
f 52 55 56 glass
f 53 49 52 glass
f 53 52 56 glass
f 50 54 55 glass
f 50 55 51 glass
f 57 58 59 glass
f 57 59 60 glass
f 62 61 64 glass
f 62 64 63 glass
f 61 62 58 glass
f 61 58 57 glass
f 60 59 63 glass
f 60 63 64 glass
f 61 57 60 glass
f 61 60 64 glass
f 58 62 63 glass
f 58 63 59 glass
f 65 66 67 glass
f 65 67 68 glass
f 70 69 72 glass
f 70 72 71 glass
f 69 70 66 glass
f 69 66 65 glass
f 68 67 71 glass
f 68 71 72 glass
f 69 65 68 glass
f 69 68 72 glass
f 66 70 71 glass
f 66 71 67 glass
f 73 74 75 glass
f 73 75 76 glass
f 78 77 80 glass
f 78 80 79 glass
f 77 78 74 glass
f 77 74 73 glass
f 76 75 79 glass
f 76 79 80 glass
f 77 73 76 glass
f 77 76 80 glass
f 74 78 79 glass
f 74 79 75 glass
f 81 82 83 glass
f 81 83 84 glass
f 86 85 88 glass
f 86 88 87 glass
f 85 86 82 glass
f 85 82 81 glass
f 84 83 87 glass
f 84 87 88 glass
f 85 81 84 glass
f 85 84 88 glass
f 82 86 87 glass
f 82 87 83 glass
f 89 90 91 glass
f 89 91 92 glass
f 94 93 96 glass
f 94 96 95 glass
f 93 94 90 glass
f 93 90 89 glass
f 92 91 95 glass
f 92 95 96 glass
f 93 89 92 glass
f 93 92 96 glass
f 90 94 95 glass
f 90 95 91 glass
usemtl dark
f 97 99 100 dark
f 97 100 98 dark
f 99 101 102 dark
f 99 102 100 dark
f 101 103 104 dark
f 101 104 102 dark
f 103 105 106 dark
f 103 106 104 dark
f 105 107 108 dark
f 105 108 106 dark
f 107 109 110 dark
f 107 110 108 dark
f 109 111 112 dark
f 109 112 110 dark
f 111 113 114 dark
f 111 114 112 dark
f 113 115 116 dark
f 113 116 114 dark
f 115 97 98 dark
f 115 98 116 dark
usemtl default
f 97 99 101 default
f 97 101 dark default
usemtl dark
f 117 118 119 dark
f 117 119 120 dark
f 122 121 124 dark
f 122 124 123 dark
f 121 122 118 dark
f 121 118 117 dark
f 120 119 123 dark
f 120 123 124 dark
f 121 117 120 dark
f 121 120 124 dark
f 118 122 123 dark
f 118 123 119 dark
