# Summit Valley stylized asset
mtllib asset.mtl
v -1.250 -1.770 -0.400
v 1.250 -1.770 -0.400
v 1.250 -1.530 -0.400
v -1.250 -1.530 -0.400
v -1.250 -1.770 0.400
v 1.250 -1.770 0.400
v 1.250 -1.530 0.400
v -1.250 -1.530 0.400
v -1.250 -1.645 0.190
v 1.250 -1.645 0.190
v 1.250 -0.595 0.190
v -1.250 -0.595 0.190
v -1.250 -1.645 0.370
v 1.250 -1.645 0.370
v 1.250 -0.595 0.370
v -1.250 -0.595 0.370
v -1.070 -0.980 0.000
v -1.070 -0.050 0.000
v -1.000 -0.980 0.070
v -1.000 -0.050 0.070
v -0.930 -0.980 0.000
v -0.930 -0.050 0.000
v -1.000 -0.980 -0.070
v -1.000 -0.050 -0.070
v 0.930 -0.980 0.000
v 0.930 -0.050 0.000
v 1.000 -0.980 0.070
v 1.000 -0.050 0.070
v 1.070 -0.980 0.000
v 1.070 -0.050 0.000
v 1.000 -0.980 -0.070
v 1.000 -0.050 -0.070
v -1.025 -0.750 -0.170
v 1.025 -0.750 -0.170
v 1.025 -0.650 -0.170
v -1.025 -0.650 -0.170
v -1.025 -0.750 -0.070
v 1.025 -0.750 -0.070
v 1.025 -0.650 -0.070
v -1.025 -0.650 -0.070
v 0.080 -0.720 0.000
v 0.080 1.080 0.000
v 0.065 -0.720 0.047
v 0.065 1.080 0.047
v 0.025 -0.720 0.076
v 0.025 1.080 0.076
v -0.025 -0.720 0.076
v -0.025 1.080 0.076
v -0.065 -0.720 0.047
v -0.065 1.080 0.047
v -0.080 -0.720 0.000
v -0.080 1.080 0.000
v -0.065 -0.720 -0.047
v -0.065 1.080 -0.047
v -0.025 -0.720 -0.076
v -0.025 1.080 -0.076
v 0.025 -0.720 -0.076
v 0.025 1.080 -0.076
v 0.065 -0.720 -0.047
v 0.065 1.080 -0.047
v -0.650 0.960 -0.060
v 0.650 0.960 -0.060
v 0.650 1.080 -0.060
v -0.650 1.080 -0.060
v -0.650 0.960 0.060
v 0.650 0.960 0.060
v 0.650 1.080 0.060
v -0.650 1.080 0.060
usemtl red
f 1 2 3 red
f 1 3 4 red
f 6 5 8 red
f 6 8 7 red
f 5 6 2 red
f 5 2 1 red
f 4 3 7 red
f 4 7 8 red
f 5 1 4 red
f 5 4 8 red
f 2 6 7 red
f 2 7 3 red
f 9 10 11 red
f 9 11 12 red
f 14 13 16 red
f 14 16 15 red
f 13 14 10 red
f 13 10 9 red
f 12 11 15 red
f 12 15 16 red
f 13 9 12 red
f 13 12 16 red
f 10 14 15 red
f 10 15 11 red
usemtl dark
f 17 19 20 dark
f 17 20 18 dark
f 19 21 22 dark
f 19 22 20 dark
f 21 23 24 dark
f 21 24 22 dark
f 23 17 18 dark
f 23 18 24 dark
f 25 27 28 dark
f 25 28 26 dark
f 27 29 30 dark
f 27 30 28 dark
f 29 31 32 dark
f 29 32 30 dark
f 31 25 26 dark
f 31 26 32 dark
f 33 34 35 dark
f 33 35 36 dark
f 38 37 40 dark
f 38 40 39 dark
f 37 38 34 dark
f 37 34 33 dark
f 36 35 39 dark
f 36 39 40 dark
f 37 33 36 dark
f 37 36 40 dark
f 34 38 39 dark
f 34 39 35 dark
f 41 43 44 dark
f 41 44 42 dark
f 43 45 46 dark
f 43 46 44 dark
f 45 47 48 dark
f 45 48 46 dark
f 47 49 50 dark
f 47 50 48 dark
f 49 51 52 dark
f 49 52 50 dark
f 51 53 54 dark
f 51 54 52 dark
f 53 55 56 dark
f 53 56 54 dark
f 55 57 58 dark
f 55 58 56 dark
f 57 59 60 dark
f 57 60 58 dark
f 59 41 42 dark
f 59 42 60 dark
usemtl default
f 41 43 45 default
f 41 45 dark default
usemtl dark
f 61 62 63 dark
f 61 63 64 dark
f 66 65 68 dark
f 66 68 67 dark
f 65 66 62 dark
f 65 62 61 dark
f 64 63 67 dark
f 64 67 68 dark
f 65 61 64 dark
f 65 64 68 dark
f 62 66 67 dark
f 62 67 63 dark
