# Summit Valley stylized asset
mtllib asset.mtl
v -5.500 0.050 -4.000
v 5.500 0.050 -4.000
v 5.500 6.550 -4.000
v -5.500 6.550 -4.000
v -5.500 0.050 4.000
v 5.500 0.050 4.000
v 5.500 6.550 4.000
v -5.500 6.550 4.000
v -4.750 6.500 -3.600
v 4.750 6.500 -3.600
v 4.750 8.900 -3.600
v -4.750 8.900 -3.600
v -4.750 6.500 3.600
v 4.750 6.500 3.600
v 4.750 8.900 3.600
v -4.750 8.900 3.600
v -6.000 9.650 -4.450
v 6.000 9.650 -4.450
v 6.000 10.350 -4.450
v -6.000 10.350 -4.450
v -6.000 9.650 0.350
v 6.000 9.650 0.350
v 6.000 10.350 0.350
v -6.000 10.350 0.350
v -6.000 9.650 -0.350
v 6.000 9.650 -0.350
v 6.000 10.350 -0.350
v -6.000 10.350 -0.350
v -6.000 9.650 4.450
v 6.000 9.650 4.450
v 6.000 10.350 4.450
v -6.000 10.350 4.450
v -6.100 10.325 -4.620
v 6.100 10.325 -4.620
v 6.100 10.575 -4.620
v -6.100 10.575 -4.620
v -6.100 10.325 0.380
v 6.100 10.325 0.380
v 6.100 10.575 0.380
v -6.100 10.575 0.380
v -6.100 10.325 -0.380
v 6.100 10.325 -0.380
v 6.100 10.575 -0.380
v -6.100 10.575 -0.380
v -6.100 10.325 4.620
v 6.100 10.325 4.620
v 6.100 10.575 4.620
v -6.100 10.575 4.620
v -4.275 3.225 -4.170
v -2.925 3.225 -4.170
v -2.925 4.775 -4.170
v -4.275 4.775 -4.170
v -4.275 3.225 -3.990
v -2.925 3.225 -3.990
v -2.925 4.775 -3.990
v -4.275 4.775 -3.990
v -4.200 7.225 -3.770
v -3.000 7.225 -3.770
v -3.000 8.275 -3.770
v -4.200 8.275 -3.770
v -4.200 7.225 -3.590
v -3.000 7.225 -3.590
v -3.000 8.275 -3.590
v -4.200 8.275 -3.590
v -1.875 3.225 -4.170
v -0.525 3.225 -4.170
v -0.525 4.775 -4.170
v -1.875 4.775 -4.170
v -1.875 3.225 -3.990
v -0.525 3.225 -3.990
v -0.525 4.775 -3.990
v -1.875 4.775 -3.990
v -1.800 7.225 -3.770
v -0.600 7.225 -3.770
v -0.600 8.275 -3.770
v -1.800 8.275 -3.770
v -1.800 7.225 -3.590
v -0.600 7.225 -3.590
v -0.600 8.275 -3.590
v -1.800 8.275 -3.590
v 0.525 3.225 -4.170
v 1.875 3.225 -4.170
v 1.875 4.775 -4.170
v 0.525 4.775 -4.170
v 0.525 3.225 -3.990
v 1.875 3.225 -3.990
v 1.875 4.775 -3.990
v 0.525 4.775 -3.990
v 0.600 7.225 -3.770
v 1.800 7.225 -3.770
v 1.800 8.275 -3.770
v 0.600 8.275 -3.770
v 0.600 7.225 -3.590
v 1.800 7.225 -3.590
v 1.800 8.275 -3.590
v 0.600 8.275 -3.590
v 2.925 3.225 -4.170
v 4.275 3.225 -4.170
v 4.275 4.775 -4.170
v 2.925 4.775 -4.170
v 2.925 3.225 -3.990
v 4.275 3.225 -3.990
v 4.275 4.775 -3.990
v 2.925 4.775 -3.990
v 3.000 7.225 -3.770
v 4.200 7.225 -3.770
v 4.200 8.275 -3.770
v 3.000 8.275 -3.770
v 3.000 7.225 -3.590
v 4.200 7.225 -3.590
v 4.200 8.275 -3.590
v 3.000 8.275 -3.590
v -4.300 6.375 -5.500
v 4.300 6.375 -5.500
v 4.300 6.625 -5.500
v -4.300 6.625 -5.500
v -4.300 6.375 -4.000
v 4.300 6.375 -4.000
v 4.300 6.625 -4.000
v -4.300 6.625 -4.000
v -4.400 7.320 -5.560
v 4.400 7.320 -5.560
v 4.400 7.480 -5.560
v -4.400 7.480 -5.560
v -4.400 7.320 -5.400
v 4.400 7.320 -5.400
v 4.400 7.480 -5.400
v -4.400 7.480 -5.400
v -3.410 6.450 -5.400
v -3.410 7.450 -5.400
v -3.436 6.450 -5.336
v -3.436 7.450 -5.336
v -3.500 6.450 -5.310
v -3.500 7.450 -5.310
v -3.564 6.450 -5.336
v -3.564 7.450 -5.336
v -3.590 6.450 -5.400
v -3.590 7.450 -5.400
v -3.564 6.450 -5.464
v -3.564 7.450 -5.464
v -3.500 6.450 -5.490
v -3.500 7.450 -5.490
v -3.436 6.450 -5.464
v -3.436 7.450 -5.464
v -1.660 6.450 -5.400
v -1.660 7.450 -5.400
v -1.686 6.450 -5.336
v -1.686 7.450 -5.336
v -1.750 6.450 -5.310
v -1.750 7.450 -5.310
v -1.814 6.450 -5.336
v -1.814 7.450 -5.336
v -1.840 6.450 -5.400
v -1.840 7.450 -5.400
v -1.814 6.450 -5.464
v -1.814 7.450 -5.464
v -1.750 6.450 -5.490
v -1.750 7.450 -5.490
v -1.686 6.450 -5.464
v -1.686 7.450 -5.464
v 0.090 6.450 -5.400
v 0.090 7.450 -5.400
v 0.064 6.450 -5.336
v 0.064 7.450 -5.336
v 0.000 6.450 -5.310
v 0.000 7.450 -5.310
v -0.064 6.450 -5.336
v -0.064 7.450 -5.336
v -0.090 6.450 -5.400
v -0.090 7.450 -5.400
v -0.064 6.450 -5.464
v -0.064 7.450 -5.464
v -0.000 6.450 -5.490
v -0.000 7.450 -5.490
v 0.064 6.450 -5.464
v 0.064 7.450 -5.464
v 1.840 6.450 -5.400
v 1.840 7.450 -5.400
v 1.814 6.450 -5.336
v 1.814 7.450 -5.336
v 1.750 6.450 -5.310
v 1.750 7.450 -5.310
v 1.686 6.450 -5.336
v 1.686 7.450 -5.336
v 1.660 6.450 -5.400
v 1.660 7.450 -5.400
v 1.686 6.450 -5.464
v 1.686 7.450 -5.464
v 1.750 6.450 -5.490
v 1.750 7.450 -5.490
v 1.814 6.450 -5.464
v 1.814 7.450 -5.464
v 3.590 6.450 -5.400
v 3.590 7.450 -5.400
v 3.564 6.450 -5.336
v 3.564 7.450 -5.336
v 3.500 6.450 -5.310
v 3.500 7.450 -5.310
v 3.436 6.450 -5.336
v 3.436 7.450 -5.336
v 3.410 6.450 -5.400
v 3.410 7.450 -5.400
v 3.436 6.450 -5.464
v 3.436 7.450 -5.464
v 3.500 6.450 -5.490
v 3.500 7.450 -5.490
v 3.564 6.450 -5.464
v 3.564 7.450 -5.464
v -0.750 0.000 -4.180
v 0.750 0.000 -4.180
v 0.750 2.600 -4.180
v -0.750 2.600 -4.180
v -0.750 0.000 -3.980
v 0.750 0.000 -3.980
v 0.750 2.600 -3.980
v -0.750 2.600 -3.980
v 2.425 10.050 0.325
v 3.175 10.050 0.325
v 3.175 12.550 0.325
v 2.425 12.550 0.325
v 2.425 10.050 1.075
v 3.175 10.050 1.075
v 3.175 12.550 1.075
v 2.425 12.550 1.075
v 2.300 12.450 0.200
v 3.300 12.450 0.200
v 3.300 12.650 0.200
v 2.300 12.650 0.200
v 2.300 12.450 1.200
v 3.300 12.450 1.200
v 3.300 12.650 1.200
v 2.300 12.650 1.200
usemtl wood
f 1 2 3 wood
f 1 3 4 wood
f 6 5 8 wood
f 6 8 7 wood
f 5 6 2 wood
f 5 2 1 wood
f 4 3 7 wood
f 4 7 8 wood
f 5 1 4 wood
f 5 4 8 wood
f 2 6 7 wood
f 2 7 3 wood
usemtl wood2
f 9 10 11 wood2
f 9 11 12 wood2
f 14 13 16 wood2
f 14 16 15 wood2
f 13 14 10 wood2
f 13 10 9 wood2
f 12 11 15 wood2
f 12 15 16 wood2
f 13 9 12 wood2
f 13 12 16 wood2
f 10 14 15 wood2
f 10 15 11 wood2
usemtl roof
f 17 18 19 roof
f 17 19 20 roof
f 22 21 24 roof
f 22 24 23 roof
f 21 22 18 roof
f 21 18 17 roof
f 20 19 23 roof
f 20 23 24 roof
f 21 17 20 roof
f 21 20 24 roof
f 18 22 23 roof
f 18 23 19 roof
f 25 26 27 roof
f 25 27 28 roof
f 30 29 32 roof
f 30 32 31 roof
f 29 30 26 roof
f 29 26 25 roof
f 28 27 31 roof
f 28 31 32 roof
f 29 25 28 roof
f 29 28 32 roof
f 26 30 31 roof
f 26 31 27 roof
usemtl snow
f 33 34 35 snow
f 33 35 36 snow
f 38 37 40 snow
f 38 40 39 snow
f 37 38 34 snow
f 37 34 33 snow
f 36 35 39 snow
f 36 39 40 snow
f 37 33 36 snow
f 37 36 40 snow
f 34 38 39 snow
f 34 39 35 snow
f 41 42 43 snow
f 41 43 44 snow
f 46 45 48 snow
f 46 48 47 snow
f 45 46 42 snow
f 45 42 41 snow
f 44 43 47 snow
f 44 47 48 snow
f 45 41 44 snow
f 45 44 48 snow
f 42 46 47 snow
f 42 47 43 snow
usemtl glass
f 49 50 51 glass
f 49 51 52 glass
f 54 53 56 glass
f 54 56 55 glass
f 53 54 50 glass
f 53 50 49 glass
f 52 51 55 glass
f 52 55 56 glass
f 53 49 52 glass
f 53 52 56 glass
f 50 54 55 glass
f 50 55 51 glass
f 57 58 59 glass
f 57 59 60 glass
f 62 61 64 glass
f 62 64 63 glass
f 61 62 58 glass
f 61 58 57 glass
f 60 59 63 glass
f 60 63 64 glass
f 61 57 60 glass
f 61 60 64 glass
f 58 62 63 glass
f 58 63 59 glass
f 65 66 67 glass
f 65 67 68 glass
f 70 69 72 glass
f 70 72 71 glass
f 69 70 66 glass
f 69 66 65 glass
f 68 67 71 glass
f 68 71 72 glass
f 69 65 68 glass
f 69 68 72 glass
f 66 70 71 glass
f 66 71 67 glass
f 73 74 75 glass
f 73 75 76 glass
f 78 77 80 glass
f 78 80 79 glass
f 77 78 74 glass
f 77 74 73 glass
f 76 75 79 glass
f 76 79 80 glass
f 77 73 76 glass
f 77 76 80 glass
f 74 78 79 glass
f 74 79 75 glass
f 81 82 83 glass
f 81 83 84 glass
f 86 85 88 glass
f 86 88 87 glass
f 85 86 82 glass
f 85 82 81 glass
f 84 83 87 glass
f 84 87 88 glass
f 85 81 84 glass
f 85 84 88 glass
f 82 86 87 glass
f 82 87 83 glass
f 89 90 91 glass
f 89 91 92 glass
f 94 93 96 glass
f 94 96 95 glass
f 93 94 90 glass
f 93 90 89 glass
f 92 91 95 glass
f 92 95 96 glass
f 93 89 92 glass
f 93 92 96 glass
f 90 94 95 glass
f 90 95 91 glass
f 97 98 99 glass
f 97 99 100 glass
f 102 101 104 glass
f 102 104 103 glass
f 101 102 98 glass
f 101 98 97 glass
f 100 99 103 glass
f 100 103 104 glass
f 101 97 100 glass
f 101 100 104 glass
f 98 102 103 glass
f 98 103 99 glass
f 105 106 107 glass
f 105 107 108 glass
f 110 109 112 glass
f 110 112 111 glass
f 109 110 106 glass
f 109 106 105 glass
f 108 107 111 glass
f 108 111 112 glass
f 109 105 108 glass
f 109 108 112 glass
f 106 110 111 glass
f 106 111 107 glass
usemtl wood2
f 113 114 115 wood2
f 113 115 116 wood2
f 118 117 120 wood2
f 118 120 119 wood2
f 117 118 114 wood2
f 117 114 113 wood2
f 116 115 119 wood2
f 116 119 120 wood2
f 117 113 116 wood2
f 117 116 120 wood2
f 114 118 119 wood2
f 114 119 115 wood2
usemtl wood
f 121 122 123 wood
f 121 123 124 wood
f 126 125 128 wood
f 126 128 127 wood
f 125 126 122 wood
f 125 122 121 wood
f 124 123 127 wood
f 124 127 128 wood
f 125 121 124 wood
f 125 124 128 wood
f 122 126 127 wood
f 122 127 123 wood
f 129 131 132 wood
f 129 132 130 wood
f 131 133 134 wood
f 131 134 132 wood
f 133 135 136 wood
f 133 136 134 wood
f 135 137 138 wood
f 135 138 136 wood
f 137 139 140 wood
f 137 140 138 wood
f 139 141 142 wood
f 139 142 140 wood
f 141 143 144 wood
f 141 144 142 wood
f 143 129 130 wood
f 143 130 144 wood
usemtl default
f 129 131 133 default
f 129 133 wood default
usemtl wood
f 145 147 148 wood
f 145 148 146 wood
f 147 149 150 wood
f 147 150 148 wood
f 149 151 152 wood
f 149 152 150 wood
f 151 153 154 wood
f 151 154 152 wood
f 153 155 156 wood
f 153 156 154 wood
f 155 157 158 wood
f 155 158 156 wood
f 157 159 160 wood
f 157 160 158 wood
f 159 145 146 wood
f 159 146 160 wood
usemtl default
f 145 147 149 default
f 145 149 wood default
usemtl wood
f 161 163 164 wood
f 161 164 162 wood
f 163 165 166 wood
f 163 166 164 wood
f 165 167 168 wood
f 165 168 166 wood
f 167 169 170 wood
f 167 170 168 wood
f 169 171 172 wood
f 169 172 170 wood
f 171 173 174 wood
f 171 174 172 wood
f 173 175 176 wood
f 173 176 174 wood
f 175 161 162 wood
f 175 162 176 wood
usemtl default
f 161 163 165 default
f 161 165 wood default
usemtl wood
f 177 179 180 wood
f 177 180 178 wood
f 179 181 182 wood
f 179 182 180 wood
f 181 183 184 wood
f 181 184 182 wood
f 183 185 186 wood
f 183 186 184 wood
f 185 187 188 wood
f 185 188 186 wood
f 187 189 190 wood
f 187 190 188 wood
f 189 191 192 wood
f 189 192 190 wood
f 191 177 178 wood
f 191 178 192 wood
usemtl default
f 177 179 181 default
f 177 181 wood default
usemtl wood
f 193 195 196 wood
f 193 196 194 wood
f 195 197 198 wood
f 195 198 196 wood
f 197 199 200 wood
f 197 200 198 wood
f 199 201 202 wood
f 199 202 200 wood
f 201 203 204 wood
f 201 204 202 wood
f 203 205 206 wood
f 203 206 204 wood
f 205 207 208 wood
f 205 208 206 wood
f 207 193 194 wood
f 207 194 208 wood
usemtl default
f 193 195 197 default
f 193 197 wood default
usemtl dark
f 209 210 211 dark
f 209 211 212 dark
f 214 213 216 dark
f 214 216 215 dark
f 213 214 210 dark
f 213 210 209 dark
f 212 211 215 dark
f 212 215 216 dark
f 213 209 212 dark
f 213 212 216 dark
f 210 214 215 dark
f 210 215 211 dark
usemtl wood
f 217 218 219 wood
f 217 219 220 wood
f 222 221 224 wood
f 222 224 223 wood
f 221 222 218 wood
f 221 218 217 wood
f 220 219 223 wood
f 220 223 224 wood
f 221 217 220 wood
f 221 220 224 wood
f 218 222 223 wood
f 218 223 219 wood
usemtl dark
f 225 226 227 dark
f 225 227 228 dark
f 230 229 232 dark
f 230 232 231 dark
f 229 230 226 dark
f 229 226 225 dark
f 228 227 231 dark
f 228 231 232 dark
f 229 225 228 dark
f 229 228 232 dark
f 226 230 231 dark
f 226 231 227 dark
